 <svg version="1.0" xmlns="http://www.w3.org/2000/svg" width="700.000000pt" height="875.000000pt" viewBox="0 0 700.000000 875.000000" preserveAspectRatio="xMidYMid meet">
<metadata>
Created by potrace 1.12, written by Peter Selinger 2001-2015
</metadata>
<g transform="translate(0.000000,875.000000) scale(0.100000,-0.100000)" fill="#000000" stroke="none">
<path d="M2780 8459 c-81 -8 -170 -23 -235 -40 -49 -12 -49 -13 -20 -21 16 -4
70 -3 120 2 105 12 429 16 595 8 101 -6 112 -5 90 8 -22 12 -15 13 70 8 52 -2
107 -7 123 -10 15 -3 27 -1 27 5 0 12 -15 16 -100 32 -71 12 -564 18 -670 8z"></path>
<path d="M2964 8126 c-3 -8 -3 -19 -1 -23 6 -10 172 -7 187 2 23 14 -3 21 -81
24 -46 1 -86 4 -91 7 -4 3 -11 -2 -14 -10z"></path>
<path d="M1950 8099 c-30 -10 -63 -22 -72 -25 -18 -6 -25 -24 -10 -24 5 0 27
9 50 20 22 11 45 20 50 20 6 0 23 7 38 15 40 21 10 18 -56 -6z"></path>
<path d="M2779 8096 c-2 -2 -148 -7 -324 -9 -301 -5 -325 -6 -412 -30 -50 -13
-113 -35 -138 -47 -40 -19 -46 -26 -42 -46 5 -26 -7 -32 -20 -11 -11 19 -41
28 -49 16 -4 -6 -44 -29 -90 -50 -45 -21 -111 -58 -146 -81 -35 -23 -64 -43
-65 -43 -2 -1 -4 -17 -6 -36 -3 -21 -12 -38 -23 -44 -38 -19 -142 -155 -188
-243 -16 -30 -16 -34 0 -49 15 -15 15 -18 -2 -30 -16 -12 -19 -11 -25 4 -6 15
-9 13 -19 -12 -6 -16 -22 -41 -34 -55 -13 -14 -38 -47 -56 -73 -29 -45 -32
-53 -26 -101 8 -62 -4 -99 -45 -142 -65 -67 -131 -351 -95 -406 12 -18 13 -32
5 -68 -10 -45 -43 -129 -81 -208 -17 -34 -22 -67 -25 -166 -4 -119 -3 -125 32
-226 19 -57 44 -113 54 -125 11 -11 26 -48 34 -82 10 -45 25 -75 55 -110 22
-27 44 -62 48 -79 4 -16 17 -41 30 -56 12 -16 26 -38 30 -50 4 -13 15 -29 25
-36 11 -7 19 -19 19 -26 0 -8 7 -20 16 -27 9 -7 20 -22 25 -34 6 -11 21 -38
34 -60 14 -22 25 -55 25 -73 0 -44 12 -66 75 -133 41 -45 56 -70 69 -120 26
-96 55 -227 66 -295 5 -34 18 -81 28 -105 16 -37 27 -47 66 -61 41 -15 48 -15
53 -3 3 8 3 22 -1 30 -15 39 -35 218 -46 395 -6 107 -17 294 -25 415 -16 260
-11 418 13 455 19 30 19 30 28 196 6 121 5 132 -12 145 -27 20 -31 131 -7 168
10 14 24 40 33 56 8 17 25 31 37 33 12 2 27 10 33 18 7 8 20 14 30 14 9 0 29
9 44 21 16 12 36 19 49 17 13 -3 29 1 35 9 7 7 22 13 34 13 12 0 29 6 37 14 9
7 45 26 81 42 36 16 78 41 93 56 16 15 36 28 45 29 9 0 35 3 57 5 85 10 248
15 264 8 9 -4 33 -8 55 -9 24 -1 43 -8 51 -19 12 -16 14 -16 30 6 11 15 19 19
22 11 3 -7 11 -13 19 -13 9 0 13 4 9 9 -3 5 10 22 30 36 31 24 40 26 92 21 55
-6 99 1 188 33 17 6 52 16 78 23 27 7 53 20 58 29 5 11 17 15 34 11 15 -2 37
1 49 8 18 9 29 9 45 1 16 -9 29 -8 57 4 20 8 56 15 79 15 29 0 45 5 49 15 3 8
17 15 31 15 23 0 102 35 115 51 9 11 103 56 152 74 27 9 62 32 80 50 17 19 45
37 61 41 15 3 31 12 34 20 3 8 18 14 33 14 16 0 30 7 34 15 3 8 14 15 25 15
11 0 28 11 38 24 13 16 40 28 88 40 39 9 79 21 90 26 11 4 28 11 38 14 9 3 17
14 17 25 0 24 18 36 47 33 11 -2 24 2 28 8 5 8 11 8 21 -1 11 -9 15 -8 20 4 3
9 3 21 -1 27 -5 8 4 9 31 4 34 -6 37 -5 30 12 -4 10 -9 26 -11 34 -2 8 -10 29
-19 45 -24 45 -20 53 29 61 38 5 51 3 83 -18 20 -14 47 -28 59 -32 30 -10 20
-49 -11 -41 -35 10 -96 40 -96 47 0 14 -36 27 -50 18 -18 -11 27 -50 93 -81
41 -20 50 -21 58 -9 7 12 10 11 15 -7 4 -13 10 -23 14 -23 5 0 10 10 12 23 2
18 8 21 33 19 l30 -4 -23 24 c-12 14 -22 30 -22 36 0 7 -11 17 -25 22 -14 5
-25 16 -25 25 0 13 -19 20 -44 16 -4 -1 -14 3 -22 10 -7 6 -35 13 -61 14 -74
6 -203 61 -203 87 0 8 -83 48 -99 48 -6 0 -11 6 -11 13 0 8 -19 20 -42 27 -24
7 -54 16 -68 20 -14 4 -83 13 -155 19 -136 12 -207 23 -290 46 -27 8 -63 17
-80 21 -16 3 -50 13 -74 20 -58 19 -161 33 -167 22 -3 -4 -12 -8 -20 -8 -8 0
-13 4 -10 9 3 4 -1 17 -9 27 -8 10 -15 22 -15 27 0 10 37 9 58 -2 9 -5 46 -14
82 -21 36 -7 97 -19 135 -26 39 -8 86 -16 105 -18 59 -6 149 -24 219 -45 131
-38 271 -55 271 -32 0 5 24 11 54 13 30 1 52 0 50 -3 -4 -8 94 -4 102 4 3 3
-5 12 -18 21 -15 10 -63 17 -138 22 -108 7 -114 6 -101 -10 13 -16 12 -17 -22
-14 -21 2 -38 8 -38 13 0 6 -8 18 -16 28 -20 21 -12 30 45 46 57 16 49 34 -20
45 -42 7 -58 14 -61 27 -9 34 -49 39 -329 35 -267 -4 -363 -12 -423 -35 -38
-16 -74 -6 -84 22 -13 33 20 53 60 37 22 -9 33 -10 41 -2 6 6 24 8 41 5 21 -4
28 -3 23 5 -4 7 -12 12 -17 12 -5 0 -26 11 -47 25 -38 25 -38 25 -112 10 -118
-23 -361 -55 -415 -55 l-50 1 24 19 c13 11 34 20 47 20 12 0 26 5 29 10 3 6
23 10 43 10 20 0 62 7 92 15 30 8 69 15 87 15 17 0 34 4 37 9 7 10 -38 21
-104 25 -25 1 -52 5 -61 9 -8 4 -17 6 -20 3z m-191 -124 c15 -10 -138 -53
-209 -60 -47 -4 -89 10 -89 28 0 6 34 10 78 10 42 0 100 6 127 14 60 17 76 18
93 8z m857 -62 c3 -5 -3 -10 -15 -10 -12 0 -18 5 -15 10 3 6 10 10 15 10 5 0
12 -4 15 -10z m-1240 -10 c-3 -5 -10 -10 -16 -10 -5 0 -9 5 -9 10 0 6 7 10 16
10 8 0 12 -4 9 -10z m-265 -22 c0 -13 -23 -5 -28 10 -2 7 2 10 12 6 9 -3 16
-11 16 -16z m926 10 c6 -7 -354 -16 -373 -10 -7 2 -11 8 -8 12 5 9 372 6 381
-2z m976 -10 c-9 -9 -15 -9 -24 0 -9 9 -7 12 12 12 19 0 21 -3 12 -12z m-852
-18 c0 -5 -7 -7 -15 -4 -8 4 -15 8 -15 10 0 2 7 4 15 4 8 0 15 -4 15 -10z
m680 -454 c126 -65 206 -124 190 -140 -6 -6 -15 -4 -25 4 -9 7 -48 30 -88 49
-40 20 -92 50 -117 66 -25 16 -58 36 -75 45 -16 8 -31 23 -33 32 -4 23 2 20
148 -56z m700 34 c0 -5 -2 -10 -4 -10 -3 0 -8 5 -11 10 -3 6 -1 10 4 10 6 0
11 -4 11 -10z m-428 -60 c26 -16 52 -30 57 -30 5 0 12 -7 15 -16 5 -12 14 -15
36 -11 23 5 33 2 45 -16 35 -50 3 -59 -57 -16 -15 10 -37 19 -50 19 -23 1 -50
21 -97 73 -33 36 -11 35 51 -3z m145 -17 c22 -17 7 -35 -17 -20 -13 7 -20 23
-20 42 1 27 2 28 12 10 6 -11 17 -25 25 -32z m-400 -105 c28 -31 -1 -19 -42
18 -39 35 -39 35 -7 17 18 -10 40 -26 49 -35z"></path>
<path d="M3556 8061 c-7 -10 77 -23 99 -15 8 3 12 10 9 15 -7 12 -101 12 -108
0z"></path>
<path d="M3293 8048 c-46 -7 -63 -14 -63 -25 0 -11 6 -14 21 -10 12 3 48 -7
84 -23 57 -26 72 -28 137 -24 126 9 136 11 136 39 0 24 -2 25 -82 27 -116 2
-121 3 -118 16 2 14 -25 14 -115 0z m77 -22 c0 -11 -19 -15 -25 -6 -3 5 1 10
9 10 9 0 16 -2 16 -4z"></path>
<path d="M3698 7978 c14 -14 92 -12 107 3 5 5 -15 9 -55 9 -50 0 -61 -3 -52
-12z"></path>
<path d="M4534 7745 c-19 -14 -19 -14 3 -15 28 0 53 10 53 21 0 14 -34 11 -56
-6z"></path>
<path d="M4540 7660 c0 -5 9 -10 19 -10 11 0 23 5 26 10 4 6 -5 10 -19 10 -14
0 -26 -4 -26 -10z"></path>
<path d="M4626 7661 c-14 -5 -16 -10 -7 -15 16 -10 63 2 56 14 -7 12 -22 12
-49 1z"></path>
<path d="M4574 7545 c11 -8 29 -15 40 -15 20 0 20 0 0 15 -10 8 -28 14 -39 14
-20 0 -20 0 -1 -14z"></path>
<path d="M4680 7386 c0 -2 7 -6 15 -10 8 -3 15 -1 15 4 0 6 -7 10 -15 10 -8 0
-15 -2 -15 -4z"></path>
<path d="M5151 7323 c20 -26 53 -52 64 -53 6 0 30 -19 55 -42 35 -33 41 -43
28 -46 -9 -2 -31 7 -47 19 -17 12 -33 20 -37 17 -9 -10 24 -53 51 -68 26 -14
39 -36 25 -45 -5 -3 -43 29 -85 70 -41 41 -81 75 -87 75 -6 0 -24 15 -39 33
-15 17 -29 30 -32 27 -21 -21 4 -140 30 -140 20 0 53 -42 53 -67 0 -13 -2 -23
-5 -23 -9 0 -81 35 -107 53 -16 10 -32 16 -38 12 -5 -3 -18 2 -28 12 -113 108
-195 136 -107 37 24 -28 52 -60 62 -73 17 -21 22 -22 42 -12 17 10 25 10 37 0
23 -19 11 -34 -24 -31 -34 4 -41 -8 -19 -30 76 -77 87 -95 77 -126 -7 -26 -6
-32 7 -32 21 0 42 29 43 58 0 35 24 21 28 -16 2 -17 16 -45 33 -63 16 -17 29
-40 29 -51 0 -30 28 -76 50 -83 11 -3 34 -23 52 -44 18 -21 54 -52 79 -69 25
-18 52 -39 59 -47 11 -13 15 -13 22 -3 6 10 15 5 36 -18 15 -18 37 -37 50 -43
36 -19 28 15 -15 65 -21 23 -60 71 -88 106 -27 34 -65 78 -83 98 -34 37 -102
138 -102 153 0 5 -7 15 -15 23 -8 9 -15 24 -15 34 0 10 -4 22 -10 25 -5 3 -10
13 -10 21 0 12 4 12 20 4 11 -6 20 -16 20 -23 0 -7 10 -17 22 -22 20 -9 32
-25 73 -97 28 -50 62 -97 93 -128 17 -17 56 -66 87 -110 31 -44 61 -80 66 -80
5 0 14 -10 19 -22 6 -13 21 -41 35 -63 13 -22 27 -52 30 -67 4 -16 12 -28 19
-28 10 0 12 14 9 53 -5 62 -21 117 -34 117 -4 0 -17 17 -27 38 -11 20 -35 64
-56 96 -20 33 -36 66 -36 75 0 8 -7 23 -17 33 -17 19 -30 39 -59 96 -10 17
-23 32 -30 32 -7 0 -26 21 -43 48 -17 26 -38 57 -47 70 -9 12 -14 25 -11 29
11 10 37 -6 37 -22 0 -9 18 -35 40 -57 22 -23 40 -45 40 -48 0 -4 25 -33 55
-65 30 -33 55 -63 55 -69 0 -14 82 -136 92 -136 4 0 8 3 8 6 0 10 -89 234
-112 280 -20 42 -139 155 -169 161 -31 6 -35 13 -18 30 20 20 -36 87 -111 132
-76 45 -89 50 -69 24z m-91 -279 c0 -16 -16 -19 -25 -4 -8 13 4 32 16 25 5 -4
9 -13 9 -21z m0 -49 c0 -14 -4 -25 -10 -25 -5 0 -10 11 -10 25 0 14 5 25 10
25 6 0 10 -11 10 -25z"></path>
<path d="M4729 7276 c16 -19 44 -21 39 -3 -3 6 -15 14 -28 15 -21 3 -22 2 -11
-12z"></path>
<path d="M4665 7120 c-3 -5 3 -28 13 -52 11 -24 27 -64 37 -91 16 -45 38 -67
67 -67 8 0 6 4 -4 11 -10 5 -18 19 -18 30 0 11 -4 28 -9 37 -6 11 -4 31 4 55
11 33 11 37 -4 37 -10 0 -28 11 -41 25 -25 27 -35 30 -45 15z"></path>
<path d="M4772 7038 c-10 -27 -8 -34 14 -63 20 -27 24 -40 19 -68 -4 -21 -3
-37 4 -41 6 -4 11 -15 11 -25 0 -10 8 -29 18 -42 11 -13 22 -35 26 -49 6 -24
64 -96 71 -88 6 6 -22 77 -41 105 -23 35 -72 133 -66 133 6 0 92 -92 92 -99 0
-3 12 -18 27 -33 27 -28 53 -37 53 -17 0 12 -106 176 -119 184 -5 3 -23 29
-39 58 -42 75 -55 84 -70 45z"></path>
<path d="M4880 7030 c0 -5 5 -10 11 -10 5 0 7 5 4 10 -3 6 -8 10 -11 10 -2 0
-4 -4 -4 -10z"></path>
<path d="M4900 6997 c0 -14 41 -57 53 -57 13 0 7 20 -15 45 -24 28 -38 32 -38
12z"></path>
<path d="M5060 6865 c0 -8 4 -15 10 -15 5 0 7 7 4 15 -4 8 -8 15 -10 15 -2 0
-4 -7 -4 -15z"></path>
<path d="M4800 6777 c0 -18 24 -67 33 -67 4 0 7 9 7 20 0 11 -4 20 -10 20 -5
0 -10 9 -10 20 0 11 -4 20 -10 20 -5 0 -10 -6 -10 -13z"></path>
<path d="M5000 6717 c0 -14 61 -77 74 -77 10 0 -46 78 -61 84 -7 3 -13 0 -13
-7z"></path>
<path d="M5121 6707 c-2 -17 30 -64 69 -101 22 -22 40 -46 40 -54 0 -8 16 -34
35 -58 19 -23 35 -49 35 -58 0 -9 11 -23 24 -32 25 -15 66 -76 66 -95 0 -6 16
-35 35 -65 19 -30 35 -59 35 -65 0 -13 68 -42 80 -34 19 11 30 -5 18 -25 -10
-15 -9 -23 7 -40 24 -27 59 -23 63 8 2 13 -6 46 -17 72 -12 27 -21 65 -21 86
0 20 -9 52 -20 70 -21 33 -21 33 -1 44 12 6 18 16 15 25 -4 9 -2 21 4 28 17
20 -20 55 -69 66 -24 5 -49 17 -55 26 -11 14 -13 14 -29 -2 -17 -16 -16 -18 5
-35 12 -10 31 -18 41 -18 23 0 25 -28 3 -37 -23 -8 -44 7 -65 46 -16 30 -50
70 -117 137 -13 12 -30 20 -37 18 -7 -3 -18 4 -25 15 -6 12 -17 21 -25 21 -8
0 -19 9 -25 20 -6 11 -21 20 -35 20 -13 0 -26 6 -28 13 -3 6 -6 8 -6 4z m419
-327 c0 -5 -7 -10 -15 -10 -8 0 -15 5 -15 10 0 6 7 10 15 10 8 0 15 -4 15 -10z"></path>
<path d="M4882 6518 c2 -6 10 -14 16 -16 7 -2 10 2 6 12 -7 18 -28 22 -22 4z"></path>
<path d="M4850 6495 c0 -3 6 -14 12 -25 11 -16 9 -22 -6 -33 -18 -13 -18 -15
-2 -48 9 -19 33 -52 52 -74 27 -30 43 -40 69 -40 l34 -2 -2 51 c-2 41 -7 55
-33 80 -34 34 -124 100 -124 91z"></path>
<path d="M5285 6330 c3 -5 13 -10 22 -10 9 0 22 -8 29 -17 10 -13 13 -14 14
-4 0 8 -8 20 -17 27 -21 16 -57 19 -48 4z"></path>
<path d="M5196 6295 c4 -8 13 -15 21 -15 8 0 11 -5 8 -11 -4 -6 3 -20 15 -31
19 -18 20 -22 7 -30 -14 -8 -14 -14 4 -56 49 -112 59 -155 34 -146 -18 7 -20
-17 -3 -34 8 -8 8 -15 3 -21 -13 -13 -48 17 -69 58 -14 26 -20 30 -32 21 -14
-12 -12 -23 12 -51 12 -13 12 -18 0 -34 -17 -24 -36 -11 -36 25 0 16 -4 32
-10 35 -5 3 -18 25 -28 48 -11 23 -29 51 -41 61 -11 11 -21 28 -21 38 0 10
-10 22 -23 27 -12 5 -36 24 -52 43 -29 34 -82 68 -106 68 -21 0 4 -137 37
-202 8 -14 14 -41 14 -59 0 -18 11 -51 24 -73 13 -23 31 -66 40 -97 21 -76 62
-162 86 -184 11 -10 20 -23 20 -30 0 -6 13 -24 29 -39 21 -21 34 -48 47 -100
9 -39 21 -77 27 -84 5 -7 13 -32 18 -57 8 -41 46 -115 60 -115 4 0 12 14 19
31 10 24 11 36 2 49 -15 25 10 45 56 45 35 0 36 1 38 40 3 53 27 107 68 153
38 41 116 181 116 207 0 14 -9 15 -62 9 -35 -4 -65 -11 -68 -15 -3 -5 -29 -13
-58 -20 -55 -11 -82 -3 -82 26 0 7 -7 16 -16 19 -24 9 -3 30 51 51 25 9 45 21
45 26 0 5 10 7 23 4 57 -13 99 48 65 97 -25 36 -23 45 13 63 34 18 36 47 4 54
-25 4 -42 28 -50 68 -6 36 -66 105 -72 85 -7 -19 20 -72 40 -78 20 -6 20 -35
0 -41 -6 -2 -21 5 -32 16 -12 12 -25 21 -31 21 -5 0 -13 6 -17 14 -4 7 -18 19
-31 25 -15 8 -21 18 -17 30 4 12 -8 26 -40 49 -52 36 -57 38 -49 17z m24 -401
c0 -8 -4 -12 -10 -9 -5 3 -10 10 -10 16 0 5 5 9 10 9 6 0 10 -7 10 -16z m79
-193 c10 -7 11 -16 4 -37 -9 -26 -14 -29 -62 -32 -38 -2 -52 0 -49 9 2 7 13
14 23 15 11 2 28 14 38 28 20 28 25 30 46 17z m57 -262 c3 -6 1 -16 -5 -22
-12 -12 -61 6 -61 23 0 13 57 13 66 -1z"></path>
<path d="M5070 6270 c0 -5 5 -10 10 -10 6 0 10 5 10 10 0 6 -4 10 -10 10 -5 0
-10 -4 -10 -10z"></path>
<path d="M5315 6250 c-3 -5 -1 -10 4 -10 6 0 11 5 11 10 0 6 -2 10 -4 10 -3 0
-8 -4 -11 -10z"></path>
<path d="M5110 6221 c0 -6 5 -13 10 -16 6 -3 10 1 10 9 0 9 -4 16 -10 16 -5 0
-10 -4 -10 -9z"></path>
<path d="M4205 5646 c-22 -8 -71 -16 -110 -20 -38 -3 -101 -15 -140 -26 -38
-12 -106 -29 -150 -40 -95 -22 -190 -55 -222 -75 -12 -8 -29 -15 -37 -15 -8 0
-16 -4 -18 -10 -1 -5 -24 -31 -49 -57 -59 -61 -85 -114 -70 -142 12 -21 45
-36 60 -26 5 3 52 13 103 21 51 9 98 20 105 26 17 13 71 19 78 7 4 -5 -1 -9
-9 -9 -8 0 -19 -6 -23 -12 -4 -7 -25 -22 -46 -32 -21 -11 -49 -30 -63 -43 -24
-22 -25 -28 -23 -123 2 -74 6 -100 16 -100 18 0 46 -47 39 -65 -3 -8 -1 -15 5
-15 6 0 28 -13 49 -30 44 -35 101 -40 140 -12 20 13 44 17 118 15 l92 -1 0 44
c0 41 19 65 21 27 1 -12 3 -10 8 6 5 18 19 28 51 38 63 20 130 53 130 64 0 5
8 9 18 9 9 0 26 7 36 15 11 8 28 15 38 15 10 0 18 6 18 14 0 7 25 32 55 55 44
32 65 41 95 41 34 0 40 3 40 21 0 12 -8 23 -20 26 -23 6 -25 14 -9 30 8 8 -3
18 -43 37 -30 14 -70 29 -89 33 -19 3 -45 13 -57 21 l-24 16 24 18 c12 10 29
16 36 13 7 -3 38 2 70 11 31 9 71 19 87 23 25 6 30 12 27 34 -2 19 2 27 13 27
20 0 19 13 -3 33 -24 22 -42 22 -42 0 0 -14 -3 -13 -16 5 -21 30 -66 52 -109
52 -27 0 -35 4 -35 18 0 11 -13 22 -37 30 -60 21 -85 23 -128 8z m184 -422
c17 -4 31 -13 31 -21 0 -14 -6 -17 -51 -27 -14 -3 -38 -17 -55 -31 -37 -31
-42 -17 -15 40 22 47 31 51 90 39z"></path>
<path d="M2529 5480 c-30 -4 -118 -8 -195 -9 -76 -1 -152 -6 -169 -11 -16 -5
-62 -18 -101 -30 -77 -21 -105 -41 -200 -137 -52 -53 -60 -66 -56 -91 5 -37
54 -92 82 -92 12 0 31 5 43 12 45 25 94 38 149 38 47 0 60 4 72 21 13 19 21
21 58 15 24 -4 53 -7 66 -7 15 1 22 -4 19 -12 -2 -7 -16 -11 -32 -9 -21 2 -26
0 -22 -12 7 -17 -27 -41 -43 -31 -14 9 -93 -50 -131 -98 -26 -32 -33 -50 -33
-86 l-1 -46 65 -9 c36 -4 77 -17 92 -27 14 -11 30 -19 34 -19 4 0 15 -7 25
-16 10 -9 40 -18 66 -20 84 -6 142 -25 179 -57 41 -37 84 -42 158 -21 33 9 54
10 66 4 29 -16 58 -12 70 9 5 11 25 24 44 31 23 7 36 19 40 35 3 13 19 33 34
44 28 19 28 22 21 76 -4 31 -12 62 -19 70 -8 10 -8 15 0 20 6 4 9 14 6 22 -3
8 1 21 9 30 21 20 5 39 -52 64 -24 10 -43 22 -43 28 0 5 -18 16 -40 25 -84 33
-24 46 97 20 29 -6 33 -4 47 30 15 36 29 45 41 26 11 -18 35 -11 35 10 0 11
-4 20 -10 20 -5 0 -10 9 -10 20 0 12 -10 24 -23 29 -13 5 -29 22 -36 38 -12
30 -56 53 -100 53 -12 0 -24 7 -28 15 -3 9 -13 15 -22 13 -9 -1 -29 3 -46 9
-39 15 -136 21 -206 13z m-209 -502 c12 -13 28 -36 37 -52 l15 -29 -39 7 c-21
4 -42 12 -47 17 -6 5 -20 9 -32 9 -26 0 -46 21 -36 37 8 12 48 31 69 32 7 1
22 -9 33 -21z"></path>
<path d="M1033 5310 c-1 -25 3 -41 10 -42 7 0 18 -2 25 -2 7 -1 17 -7 21 -15
7 -11 15 -10 40 8 17 12 31 26 31 30 0 15 -35 38 -65 44 -16 3 -37 8 -45 12
-12 4 -16 -3 -17 -35z"></path>
<path d="M4066 4884 c-4 -9 -4 -19 -1 -22 2 -3 7 3 11 12 4 9 4 19 1 22 -2 3
-7 -3 -11 -12z"></path>
<path d="M3673 3900 c-35 -21 -46 -48 -15 -35 9 4 28 10 42 13 28 5 50 20 50
33 0 16 -44 9 -77 -11z"></path>
<path d="M3082 3841 c-21 -13 10 -45 36 -37 12 4 20 12 17 17 -11 16 -41 28
-53 20z"></path>
<path d="M4200 3683 c0 -5 9 -19 20 -33 11 -14 20 -30 20 -36 0 -7 11 -15 25
-18 18 -5 27 -17 35 -45 13 -51 1 -83 -43 -110 -31 -19 -87 -86 -87 -104 0 -4
11 -7 24 -7 14 0 38 -14 59 -35 33 -33 39 -35 100 -35 74 0 86 9 102 74 14 55
-8 122 -42 131 -13 3 -29 3 -34 -1 -23 -14 -44 39 -40 102 3 59 2 61 -34 92
-25 23 -46 32 -70 32 -19 0 -35 -3 -35 -7z"></path>
<path d="M5366 3612 c-3 -5 -1 -37 4 -72 5 -35 12 -118 15 -184 9 -158 31
-334 52 -405 13 -47 15 -85 9 -231 -3 -96 -13 -206 -20 -245 -34 -169 -49
-223 -76 -265 -15 -25 -38 -65 -52 -90 -28 -54 -136 -165 -198 -205 -25 -15
-63 -40 -86 -55 -22 -15 -72 -37 -112 -49 -46 -14 -75 -29 -82 -41 -6 -11 -17
-20 -25 -20 -8 0 -15 -4 -15 -9 0 -23 -86 -112 -127 -133 -26 -13 -55 -37 -65
-54 -10 -17 -29 -37 -43 -44 -13 -7 -27 -22 -31 -32 -3 -10 -18 -26 -32 -36
-15 -9 -33 -25 -40 -34 -7 -10 -28 -25 -45 -34 -33 -17 -129 -101 -136 -119
-2 -5 -25 -33 -52 -61 -27 -27 -57 -64 -67 -80 -9 -17 -39 -57 -65 -91 -45
-56 -52 -61 -99 -67 -28 -4 -63 -13 -77 -20 -27 -15 -124 -6 -162 14 -10 6
-27 10 -38 10 -28 0 -113 41 -129 63 -7 9 -19 17 -25 17 -7 0 -43 20 -80 45
-38 25 -76 45 -84 45 -8 0 -41 29 -74 63 -32 35 -80 74 -105 88 -25 13 -57 38
-71 56 -13 17 -38 35 -54 38 -16 4 -66 34 -111 68 -45 34 -88 67 -97 72 -59
37 -256 218 -301 275 -62 82 -107 154 -125 205 -10 28 -25 59 -32 70 -7 11
-13 29 -13 42 0 12 -4 25 -10 28 -5 3 -10 16 -11 28 -1 18 -3 16 -10 -8 -14
-46 31 -238 91 -390 29 -71 54 -138 57 -147 3 -10 9 -18 13 -18 5 0 14 -15 20
-34 6 -19 25 -52 42 -73 16 -21 41 -63 55 -93 14 -30 38 -82 53 -116 16 -33
32 -78 35 -100 8 -47 27 -94 37 -94 5 0 8 -11 8 -24 0 -14 5 -28 10 -31 17
-10 11 -44 -10 -57 -11 -7 -20 -19 -20 -26 0 -7 -22 -34 -50 -59 -27 -25 -63
-72 -79 -103 -15 -32 -35 -68 -44 -80 -15 -21 -15 -26 1 -52 17 -29 16 -30 -8
-48 -34 -27 -38 -25 -46 14 -5 28 -11 35 -32 38 -16 2 -31 13 -39 27 -6 13
-19 29 -28 34 -10 5 -15 19 -14 35 2 15 -3 38 -10 51 -13 23 -11 27 13 46 14
11 26 30 26 42 0 22 -26 50 -37 39 -3 -3 -14 12 -24 35 -10 22 -23 38 -28 34
-6 -3 -15 3 -20 14 -6 11 -19 22 -28 25 -23 7 -53 60 -53 91 0 13 -5 27 -11
31 -17 10 -49 86 -49 116 0 15 -7 31 -15 35 -9 5 -22 41 -30 83 -9 41 -25 88
-37 104 -11 16 -26 52 -32 79 -9 42 -17 53 -43 66 -28 14 -33 21 -33 53 0 21
8 53 17 73 21 45 7 76 -49 101 -32 15 -38 21 -34 40 7 28 -19 52 -42 38 -13
-8 -16 -28 -17 -85 0 -78 -3 -71 65 -156 24 -30 32 -62 23 -90 -14 -41 12
-212 36 -234 12 -11 22 -44 30 -94 6 -42 18 -89 26 -105 8 -16 15 -36 15 -45
0 -8 4 -15 9 -15 5 0 12 -22 16 -49 5 -35 12 -50 24 -54 13 -3 20 -19 25 -58
4 -30 8 -63 7 -73 0 -11 11 -30 24 -42 16 -15 22 -29 19 -39 -5 -13 -2 -16 16
-13 13 2 26 -3 30 -12 10 -20 27 -61 34 -83 3 -9 19 -20 36 -23 28 -6 43 -24
20 -24 -12 0 -13 -37 -1 -44 5 -3 11 1 15 9 14 37 38 1 40 -60 1 -18 6 -29 13
-28 15 3 36 -34 30 -51 -6 -14 17 -48 29 -44 5 2 9 -1 9 -7 0 -5 -6 -9 -12 -7
-7 2 -13 -4 -13 -13 0 -12 6 -15 19 -10 24 7 41 -20 41 -64 0 -31 14 -49 25
-31 3 5 10 10 14 10 13 0 32 -51 26 -71 -7 -20 -2 -22 46 -33 19 -4 25 -12 25
-28 -1 -18 4 -22 23 -20 31 3 55 -16 41 -33 -15 -18 3 -28 31 -20 24 8 39 -8
39 -42 0 -16 7 -22 28 -25 19 -2 28 -9 30 -25 3 -23 6 -23 141 -23 111 0 141
3 151 15 11 13 8 17 -18 26 -17 6 -33 17 -36 25 -3 8 -19 14 -40 14 -33 0 -66
20 -66 40 0 5 -7 7 -15 4 -11 -5 -15 1 -15 20 0 19 -6 27 -25 32 -14 3 -25 10
-25 16 0 5 4 7 9 3 6 -3 15 3 21 14 11 21 -1 35 -30 36 -8 0 -17 11 -20 25 -4
16 -14 26 -29 28 -13 2 -25 12 -28 22 -3 11 -11 16 -23 13 -31 -8 -57 14 -62
51 -5 42 17 80 32 56 8 -12 13 -13 29 -3 15 10 22 9 31 -1 6 -8 23 -17 37 -21
15 -3 64 -27 110 -52 69 -39 85 -53 97 -84 9 -21 13 -44 10 -52 -5 -13 15 -98
35 -149 7 -19 15 -26 26 -22 20 8 45 -13 45 -37 0 -18 10 -19 164 -19 122 0
166 3 169 13 4 9 6 9 6 0 1 -10 97 -13 446 -13 245 0 445 4 445 9 0 4 26 37
58 72 33 35 64 73 69 84 16 30 37 199 30 240 -5 32 -3 38 24 54 26 16 28 19
12 25 -17 7 -17 8 2 22 11 9 20 27 20 42 0 18 6 28 18 30 15 3 18 -2 16 -20
-2 -12 -1 -27 2 -33 9 -15 23 -69 20 -79 -1 -5 6 -24 15 -42 17 -30 17 -34 2
-51 -15 -17 -30 -43 -75 -134 -11 -20 -40 -57 -66 -82 -26 -26 -47 -55 -47
-66 0 -11 -9 -25 -20 -31 -11 -6 -20 -17 -20 -25 0 -13 127 -15 989 -15 l989
0 -5 21 c-4 16 -2 20 8 17 8 -3 13 -12 11 -22 -2 -11 4 -16 21 -16 20 0 23 5
23 35 0 33 -2 35 -30 36 -193 2 -345 7 -354 13 -6 3 -13 2 -17 -4 -4 -6 -10
-8 -15 -5 -5 3 -34 6 -65 6 -36 1 -55 5 -55 13 0 20 11 26 31 16 10 -6 20 -6
23 -2 2 4 112 9 243 10 626 6 598 5 599 27 1 11 2 26 3 33 1 6 5 12 11 12 11
0 8 -89 -4 -109 -4 -7 -14 -10 -22 -7 -21 8 -44 -4 -38 -19 3 -7 1 -16 -5 -20
-6 -3 -11 -13 -11 -21 0 -11 20 -14 100 -14 l101 0 -1 412 c-1 255 -5 417 -11
424 -7 8 -6 14 1 19 5 3 10 29 10 56 0 43 -3 50 -17 47 -11 -2 -20 -15 -23
-33 -3 -18 -11 -30 -20 -30 -12 0 -15 14 -15 64 0 43 -4 66 -13 69 -8 2 -13
-6 -13 -25 0 -61 -4 -102 -11 -109 -5 -4 -8 -18 -8 -31 0 -13 -6 -23 -14 -23
-17 0 -27 67 -14 93 10 20 5 32 -10 23 -5 -3 -13 -35 -17 -71 -6 -55 -10 -65
-26 -65 -19 0 -23 9 -19 44 2 24 -24 16 -28 -10 -2 -10 -6 -26 -10 -34 -3 -8
-6 -21 -6 -29 -2 -25 -26 -24 -26 1 0 43 -5 76 -12 84 -5 4 -8 -7 -8 -24 0
-17 -5 -34 -10 -37 -6 -3 -10 -18 -10 -31 0 -35 -24 -26 -30 11 -6 36 -24 39
-28 5 -8 -55 -42 -62 -42 -9 0 19 -5 29 -15 29 -10 0 -15 -10 -15 -29 0 -16
-7 -34 -15 -41 -23 -19 -28 -9 -34 54 -2 16 -14 -3 -27 -40 -7 -20 -11 -41 -8
-48 5 -14 -13 -43 -21 -34 -3 3 -8 30 -10 59 -7 76 -22 82 -30 12 -8 -71 -20
-96 -35 -73 -5 8 -7 28 -4 43 5 24 3 28 -13 25 -12 -2 -18 -12 -18 -31 -1 -36
-19 -54 -38 -38 -26 21 -53 1 -48 -36 1 -7 -3 -13 -9 -13 -5 0 -10 11 -10 24
0 14 -5 28 -10 31 -6 3 -7 17 -4 31 5 18 2 24 -10 24 -11 0 -16 -9 -16 -29 0
-35 -24 -60 -34 -35 -3 8 -6 27 -6 40 0 34 -28 31 -32 -3 -2 -17 -9 -28 -18
-28 -9 0 -16 11 -18 28 -4 32 -23 35 -37 6 -13 -29 -29 -29 -33 -1 -4 25 -37
28 -37 3 0 -26 -20 -21 -31 7 -11 28 -13 29 -85 28 -76 -1 -101 -8 -98 -29 4
-30 -2 -47 -17 -47 -10 0 -14 -6 -10 -15 4 -11 -1 -15 -19 -15 -18 0 -25 -7
-30 -30 -4 -16 -11 -32 -16 -35 -5 -4 -9 -15 -9 -26 0 -11 -11 -35 -24 -52
-14 -18 -28 -45 -32 -62 -4 -16 -19 -55 -34 -85 -15 -30 -38 -79 -51 -108 -13
-29 -31 -54 -40 -57 -10 -4 -19 -25 -25 -62 -12 -72 -30 -85 -72 -52 -20 15
-31 33 -31 49 -1 15 -6 31 -13 38 -8 8 -8 15 1 26 18 21 5 54 -30 75 -15 9
-38 30 -50 45 -19 25 -21 36 -16 98 6 75 53 189 103 255 14 18 33 50 42 70 10
21 26 50 36 65 12 18 20 54 23 108 6 76 4 83 -27 145 -24 47 -48 76 -86 106
-30 23 -54 49 -54 58 0 11 -15 21 -45 30 -52 15 -59 23 -46 48 5 10 12 26 15
36 3 9 18 23 33 30 32 14 60 42 73 75 10 23 30 30 30 10 0 -28 28 21 65 112
58 142 141 313 167 341 45 50 105 246 157 514 56 291 70 652 33 805 -26 105
-119 221 -256 321 -109 80 -121 86 -130 71z m-563 -2491 c6 -25 0 -31 -33 -31
-15 0 -33 -7 -40 -15 -17 -21 -30 -19 -30 4 0 12 9 21 26 25 15 4 33 14 41 21
20 20 30 19 36 -4z m-1983 -52 c0 -5 -4 -9 -10 -9 -5 0 -10 7 -10 16 0 8 5 12
10 9 6 -3 10 -10 10 -16z m1863 -44 c-3 -9 -8 -14 -10 -11 -3 3 -2 9 2 15 9
16 15 13 8 -4z m-113 -116 c0 -11 -3 -19 -8 -19 -12 0 -33 40 -26 51 9 14 34
-9 34 -32z m2380 -59 c0 -21 -15 -27 -25 -10 -7 12 2 30 16 30 5 0 9 -9 9 -20z
m-2400 -19 c0 -6 -4 -13 -10 -16 -5 -3 -10 1 -10 9 0 9 5 16 10 16 6 0 10 -4
10 -9z m-1442 -121 c20 -19 29 -40 18 -40 -20 0 -76 46 -76 61 0 23 19 16 58
-21z m3412 0 c0 -5 -4 -10 -10 -10 -5 0 -10 5 -10 10 0 6 5 10 10 10 6 0 10
-4 10 -10z m70 6 c0 -3 -4 -8 -10 -11 -5 -3 -10 -1 -10 4 0 6 5 11 10 11 6 0
10 -2 10 -4z m-3341 -59 c18 -22 18 -61 0 -65 -15 -3 -39 40 -39 69 0 14 26
10 39 -4z m3118 -19 c-3 -8 -6 -5 -6 6 -1 11 2 17 5 13 3 -3 4 -12 1 -19z
m615 -40 c-9 -9 -12 -7 -12 12 0 19 3 21 12 12 9 -9 9 -15 0 -24z m-3657 -58
c8 -16 15 -41 15 -55 0 -15 15 -63 34 -108 39 -93 50 -138 41 -167 -14 -44
-36 -13 -69 99 -9 29 -16 60 -16 67 0 8 -12 38 -26 67 -31 60 -46 106 -38 118
12 19 44 8 59 -21z m3651 -102 c-2 -69 1 -118 7 -126 8 -10 7 -16 -2 -21 -7
-5 -12 -17 -10 -27 1 -11 -3 -32 -10 -49 l-13 -30 -12 30 c-8 17 -10 35 -5 41
5 6 3 18 -5 29 -10 15 -15 15 -21 4 -5 -7 -8 -26 -7 -42 2 -20 -2 -27 -10 -25
-7 3 -13 18 -14 34 0 16 -2 34 -3 39 -6 20 0 70 9 85 9 13 11 13 20 0 5 -8 7
-22 5 -30 -5 -18 11 -47 21 -38 3 4 8 29 10 55 16 201 46 255 40 71z m-4286
77 c10 -12 10 -18 -1 -31 -12 -14 -14 -14 -26 2 -27 37 -2 64 27 29z m-50 -34
c0 -17 -17 -13 -24 5 -10 27 -7 36 9 20 8 -8 15 -19 15 -25z m4257 -63 c-3 -8
-6 -5 -6 6 -1 11 2 17 5 13 3 -3 4 -12 1 -19z m-80 -130 c-3 -8 -6 -5 -6 6 -1
11 2 17 5 13 3 -3 4 -12 1 -19z m7 -70 c-9 -14 -23 2 -17 18 4 12 8 13 14 3 4
-7 5 -17 3 -21z m-74 -53 c0 -8 -4 -15 -10 -15 -5 0 -10 7 -10 15 0 8 5 15 10
15 6 0 10 -7 10 -15z m-73 -17 c-3 -8 -6 -5 -6 6 -1 11 2 17 5 13 3 -3 4 -12
1 -19z m-3916 -11 c-13 -13 -26 -3 -16 12 3 6 11 8 17 5 6 -4 6 -10 -1 -17z
m4196 -24 c-3 -3 -11 -2 -17 2 -8 5 -7 11 2 22 12 15 13 14 16 -1 2 -10 1 -20
-1 -23z m-2 -43 c3 -5 -1 -10 -9 -10 -9 0 -16 5 -16 10 0 6 4 10 9 10 6 0 13
-4 16 -10z"></path>
<path d="M3383 3596 c-17 -8 -37 -27 -45 -43 -7 -15 -26 -34 -41 -41 -15 -7
-27 -21 -27 -31 0 -9 -5 -22 -11 -28 -21 -21 -5 -57 31 -75 29 -14 45 -16 95
-8 160 26 170 29 192 57 15 18 19 31 13 37 -6 6 -10 23 -10 39 0 23 3 27 19
22 14 -4 21 0 26 14 3 12 3 25 0 31 -9 15 -32 12 -39 -5 -6 -16 -36 -21 -36
-6 0 10 -96 51 -119 51 -9 -1 -30 -7 -48 -14z"></path>
<path d="M2560 3535 c0 -9 35 -62 44 -66 14 -6 17 54 3 63 -13 8 -47 11 -47 3z"></path>
<path d="M3640 3434 c0 -8 5 -12 10 -9 6 3 10 10 10 16 0 5 -4 9 -10 9 -5 0
-10 -7 -10 -16z"></path>
<path d="M2614 3318 c-36 -40 -48 -84 -34 -118 15 -35 55 -70 80 -70 9 0 34
13 55 30 20 16 45 32 56 35 10 4 19 13 19 20 0 22 17 27 57 16 50 -14 67 3 22
22 -19 8 -49 29 -67 46 -18 17 -44 31 -56 31 -13 0 -43 2 -67 6 -37 4 -47 1
-65 -18z"></path>
<path d="M3778 3235 c-9 -10 -382 -33 -543 -35 -76 0 -141 -3 -144 -6 -10 -10
36 -33 79 -39 95 -15 130 -17 275 -18 163 -1 216 7 334 54 40 16 80 29 89 29
28 0 8 7 -39 14 -25 4 -48 4 -51 1z"></path>
<path d="M625 3032 c-3 -3 -5 -34 -5 -69 0 -36 -5 -74 -11 -85 -8 -14 -8 -23
0 -31 6 -6 11 -44 11 -84 0 -57 -3 -75 -15 -80 -20 -7 -50 -67 -59 -117 -4
-22 -14 -49 -22 -60 -8 -11 -14 -29 -14 -39 0 -10 -8 -21 -18 -23 -22 -6 -53
-59 -46 -79 4 -9 -3 -16 -20 -21 -30 -7 -37 -48 -10 -58 8 -3 13 -10 9 -15 -3
-6 -16 -4 -31 4 -48 25 -72 -2 -31 -36 24 -20 22 -21 -35 -24 -28 -2 -38 2
-38 13 0 12 -3 12 -15 2 -19 -16 -82 -22 -90 -9 -4 5 -16 9 -29 9 -27 0 -78
53 -96 100 -7 19 -19 42 -27 51 -7 8 -13 23 -13 32 0 9 -4 17 -10 17 -6 0 -10
-46 -10 -119 l0 -118 29 -6 c15 -3 37 -4 47 -1 16 4 19 0 19 -28 0 -29 3 -33
27 -33 24 1 28 -3 28 -28 0 -27 2 -28 32 -21 18 4 56 8 83 9 l50 2 3 47 c3 40
5 44 18 32 7 -8 14 -25 14 -39 0 -23 4 -24 74 -30 43 -3 85 -12 99 -22 18 -12
36 -14 64 -10 55 10 160 43 218 70 28 13 71 33 98 44 54 23 67 44 43 70 -9 10
-16 28 -16 42 0 36 -48 155 -100 249 -4 8 -13 40 -20 70 -18 82 -41 153 -56
170 -7 8 -17 44 -24 80 -6 36 -16 76 -23 90 -13 29 -74 90 -82 82z"></path>
<path d="M3574 2900 c-5 -5 -29 -10 -54 -12 -42 -3 -45 -5 -42 -30 2 -24 -1
-27 -25 -25 -21 1 -27 -2 -24 -13 3 -8 5 -33 5 -55 l1 -40 55 -5 c30 -4 73 -2
95 3 97 23 145 38 145 46 0 5 -23 11 -50 13 -58 6 -73 16 -46 32 10 6 28 19
40 28 21 17 21 17 1 36 -22 21 -88 35 -101 22z"></path>
<path d="M3678 2307 c-10 -11 -19 -12 -32 -5 -18 10 -25 5 -88 -54 -10 -10
-30 -18 -45 -19 -27 -1 -27 -1 6 -10 31 -10 32 -11 15 -24 -26 -19 -10 -31 48
-38 35 -5 47 -3 52 8 6 16 36 20 51 6 6 -4 35 -5 65 -2 53 6 55 7 58 39 4 39
-23 56 -44 27 -8 -10 -20 -15 -29 -11 -20 7 -31 36 -17 45 5 3 12 15 14 26 4
25 -33 33 -54 12z"></path>
<path d="M0 2151 c0 -17 5 -31 10 -31 6 0 10 11 10 24 0 14 -4 28 -10 31 -6 4
-10 -7 -10 -24z"></path>
<path d="M6760 2046 c-15 -29 -30 -34 -30 -11 0 31 -19 13 -41 -40 -23 -55
-34 -66 -42 -42 -8 26 -34 -14 -41 -63 -4 -28 -12 -50 -17 -50 -6 0 -9 7 -6
15 4 8 0 26 -7 40 l-14 27 -18 -32 c-17 -29 -20 -29 -32 -13 -13 17 -15 16
-43 -17 -21 -24 -29 -29 -29 -17 0 9 -7 17 -15 17 -16 0 -47 -64 -43 -88 2 -8
-3 -17 -9 -19 -8 -3 -13 4 -13 17 0 35 -24 17 -34 -26 -12 -49 -11 -48 -43
-49 -23 0 -28 -6 -35 -40 -12 -55 -4 -73 22 -50 19 17 20 17 26 0 4 -10 2 -26
-5 -36 -14 -24 -12 -271 3 -266 5 2 11 26 13 55 1 28 8 70 14 94 7 24 13 67
15 96 2 58 9 71 24 56 7 -7 7 -28 1 -60 -10 -52 -5 -104 10 -104 5 0 9 3 9 8
0 4 7 16 15 26 12 15 17 17 29 7 8 -7 13 -18 10 -26 -3 -7 -1 -16 5 -20 7 -3
11 2 11 14 0 11 8 37 17 57 17 34 18 35 23 13 3 -13 12 -24 20 -24 12 0 28 64
49 193 1 2 5 1 10 -2 5 -3 9 -29 9 -57 0 -71 16 -82 32 -22 18 72 19 73 30 73
7 0 9 -10 5 -28 -3 -16 1 -42 9 -63 11 -24 15 -28 16 -14 1 30 25 56 44 49 19
-7 20 -16 5 -31 -8 -8 -8 -13 0 -18 15 -9 37 47 46 118 10 89 27 69 24 -30 -2
-86 -1 -89 31 -84 5 0 10 29 12 63 2 35 8 63 14 65 9 3 12 -21 11 -81 -1 -78
5 -108 19 -94 5 6 8 34 19 183 10 139 12 199 7 219 -5 19 -6 20 -13 0 -4 -10
-8 -31 -8 -46 -1 -16 -5 -28 -11 -28 -10 0 -12 12 -14 110 -1 53 -2 55 -28 52
-20 -3 -30 3 -40 23 l-14 26 -14 -25z m-95 -146 c3 -5 1 -10 -4 -10 -6 0 -11
5 -11 10 0 6 2 10 4 10 3 0 8 -4 11 -10z m186 -153 c-10 -9 -11 -8 -5 6 3 10
9 15 12 12 3 -3 0 -11 -7 -18z m-131 -78 c0 -10 -7 -19 -15 -19 -16 0 -19 9
-9 34 8 20 24 11 24 -15z m-416 -14 c3 -9 -1 -18 -10 -22 -19 -7 -28 2 -21 22
8 19 23 19 31 0z m118 -105 c-2 -22 -8 -40 -13 -40 -9 0 -10 78 -1 94 9 17 18
-14 14 -54z m74 44 c-3 -9 -6 -18 -6 -20 0 -3 -4 -3 -10 1 -11 7 -2 35 12 35
6 0 7 -7 4 -16z"></path>
<path d="M6120 1670 c0 -11 5 -20 10 -20 6 0 10 9 10 20 0 11 -4 20 -10 20 -5
0 -10 -9 -10 -20z"></path>
<path d="M6120 1630 c0 -5 5 -10 11 -10 5 0 7 5 4 10 -3 6 -8 10 -11 10 -2 0
-4 -4 -4 -10z"></path>
<path d="M6180 1620 c0 -5 5 -10 10 -10 6 0 10 5 10 10 0 6 -4 10 -10 10 -5 0
-10 -4 -10 -10z"></path>
<path d="M6225 1523 c-3 -32 -8 -84 -10 -117 -5 -82 -26 -100 -37 -31 -5 29
-21 21 -31 -14 -9 -36 -23 -47 -41 -32 -10 8 -16 8 -25 -3 -9 -10 -9 -16 -1
-21 8 -5 5 -11 -7 -20 -22 -16 -33 -11 -33 16 0 25 -16 24 -31 -2 -7 -13 -17
-19 -29 -16 -28 7 -36 -3 -55 -68 -9 -33 -26 -72 -36 -87 -32 -44 -51 -130
-37 -169 l11 -32 21 26 c12 14 33 30 49 36 18 7 27 18 27 33 0 13 4 29 9 37 8
13 12 13 26 1 20 -17 30 -5 46 55 15 57 17 63 18 39 1 -18 29 -55 32 -43 3 16
8 74 10 127 3 96 34 100 41 5 5 -71 14 -75 23 -11 4 29 12 59 17 66 15 18 37
-4 30 -30 -3 -14 -1 -19 8 -16 20 6 29 51 29 132 0 39 5 95 10 125 11 56 8 71
-14 71 -9 0 -15 -19 -20 -57z"></path>
<path d="M6790 1540 c0 -5 5 -10 10 -10 6 0 10 5 10 10 0 6 -4 10 -10 10 -5 0
-10 -4 -10 -10z"></path>
<path d="M6169 1503 c-3 -31 -7 -51 -14 -67 -6 -14 -4 -17 11 -14 15 2 19 13
21 46 1 23 -3 42 -8 42 -5 0 -9 -3 -10 -7z"></path>
<path d="M5320 1409 c0 -5 5 -7 10 -4 6 3 10 8 10 11 0 2 -4 4 -10 4 -5 0 -10
-5 -10 -11z"></path>
<path d="M6837 1013 c-12 -11 -8 -23 8 -23 8 0 15 7 15 15 0 16 -12 20 -23 8z"></path>
<path d="M2650 120 c0 -5 5 -10 10 -10 6 0 10 5 10 10 0 6 -4 10 -10 10 -5 0
-10 -4 -10 -10z"></path>
<path d="M6580 71 c-27 -4 -45 -11 -44 -18 1 -7 2 -22 3 -33 0 -13 8 -20 21
-20 17 0 19 5 14 25 -5 19 -2 25 10 25 10 0 16 -9 16 -25 0 -20 5 -25 24 -25
19 0 25 6 28 27 2 14 9 29 17 31 10 3 12 -3 9 -27 -4 -27 -2 -31 18 -31 18 0
23 7 26 35 4 34 3 35 -33 35 -21 0 -43 2 -51 3 -7 2 -33 1 -58 -2z"></path>
<path d="M6763 72 c-6 -4 -14 -22 -18 -40 -6 -29 -5 -32 18 -32 21 0 25 6 29
35 4 34 -8 50 -29 37z"></path>
</g>
</svg>